<svg width="30" height="27" viewBox="0 0 30 27" fill="none" xmlns="http://www.w3.org/2000/svg">
<path fill-rule="evenodd" clip-rule="evenodd" d="M16 16.9451C20.5 16.4476 24 12.6326 24 8C24 6.94809 23.8195 5.93834 23.4879 5L25 5C25.2652 5 25.5196 5.10536 25.7071 5.29289C25.8946 5.48043 26 5.73478 26 6V22C26 22.2652 25.8946 22.5196 25.7071 22.7071C25.5196 22.8946 25.2652 23 25 23C21.9916 23.0031 19.0729 24.0254 16.72 25.9L16 26.48V16.9451ZM6.51212 5C6.18046 5.93834 6 6.94809 6 8C6 12.6326 9.50005 16.4476 14 16.9451V26.48L13.28 25.9C10.9271 24.0254 8.00842 23.0031 5 23C4.73478 23 4.48043 22.8946 4.29289 22.7071C4.10536 22.5196 4 22.2652 4 22V6C4 5.73478 4.10536 5.48043 4.29289 5.29289C4.48043 5.10536 4.73478 5 5 5H6.51212ZM2 9V22C2 22.7956 2.31607 23.5587 2.87868 24.1213C3.44129 24.6839 4.20435 25 5 25C7.28079 25.0009 9.50686 25.6987 11.38 27H2C1.46957 27 0.960859 26.7893 0.585786 26.4142C0.210714 26.0391 0 25.5304 0 25V11C0 10.4696 0.210714 9.96086 0.585786 9.58579C0.960859 9.21071 1.46957 9 2 9ZM28 22V9C28.5304 9 29.0391 9.21071 29.4142 9.58579C29.7893 9.96086 30 10.4696 30 11V25C30 25.5304 29.7893 26.0391 29.4142 26.4142C29.0391 26.7893 28.5304 27 28 27H18.62C20.4931 25.6987 22.7192 25.0009 25 25C25.7956 25 26.5587 24.6839 27.1213 24.1213C27.6839 23.5587 28 22.7956 28 22Z" fill="white"/>
<path d="M11 10.9267V0H15.6053C16.3289 0 16.9449 0.127111 17.4533 0.381334C17.9716 0.625778 18.3676 0.977778 18.6413 1.43733C18.9249 1.88711 19.0667 2.43467 19.0667 3.08C19.0667 3.57867 18.9298 4.048 18.656 4.488C18.392 4.91822 17.9667 5.27511 17.38 5.55867V4.63467C17.9178 4.84 18.3431 5.09422 18.656 5.39733C18.9689 5.70045 19.1889 6.03778 19.316 6.40933C19.4431 6.78089 19.5067 7.172 19.5067 7.58267C19.5067 8.62889 19.1596 9.45022 18.4653 10.0467C17.7809 10.6333 16.8276 10.9267 15.6053 10.9267H11ZM12.9947 9.16667H15.8107C16.3289 9.16667 16.7396 9.02489 17.0427 8.74133C17.3556 8.448 17.512 8.06178 17.512 7.58267C17.512 7.10356 17.3556 6.71733 17.0427 6.424C16.7396 6.13067 16.3289 5.984 15.8107 5.984H12.9947V9.16667ZM12.9947 4.23867H15.708C16.1187 4.23867 16.4462 4.12133 16.6907 3.88667C16.9351 3.64222 17.0573 3.32933 17.0573 2.948C17.0573 2.56667 16.9351 2.26356 16.6907 2.03867C16.4462 1.81378 16.1187 1.70133 15.708 1.70133H12.9947V4.23867Z" fill="white"/>
</svg>
